<svg width="64" height="64" viewBox="0 0 64 64" xmlns="http://www.w3.org/2000/svg"><defs><pattern id="satori_pattern_id_0" x="0" y="0" width="1" height="1" patternUnits="objectBoundingBox"><linearGradient id="satori_biid_0" x1="-4.996003610813204e-16" y1="4.996003610813214e-16" x2="1.0000000000000004" y2="0.9999999999999996" spreadMethod="pad"><stop offset="0%" stop-color="#8A2387"/><stop offset="50%" stop-color="#E94057"/><stop offset="100%" stop-color="#F27121"/></linearGradient><rect x="0" y="0" width="64" height="64" fill="url(#satori_biid_0)"/></pattern></defs><mask id="satori_om-id"><rect x="0" y="0" width="64" height="64" fill="#fff"/></mask><rect x="0" y="0" width="64" height="64" fill="url(#satori_pattern_id_0)"/><g  ><path fill="#ffffff" d="M31.4 48L12.6 48L12.6 18.2L18.8 18.2L18.8 42.6L31.4 42.6L31.4 48ZM38.7 48L32.5 48L32.5 18.2L44.0 18.2Q47.0 18.2 49.4 19.3Q51.8 20.4 53.2 22.5Q54.5 24.6 54.5 27.7L54.5 27.7Q54.5 30.8 53.1 32.9Q51.8 35 49.4 36.1Q47 37.2 44.0 37.2L44.0 37.2L38.7 37.2L38.7 48ZM38.7 23.6L38.7 31.8L44 31.8Q46.0 31.8 47.1 30.7Q48.3 29.6 48.3 27.7L48.3 27.7Q48.3 25.8 47.1 24.7Q46.0 23.6 44 23.6L44 23.6L38.7 23.6Z "/></g></svg>